<svg width="64" height="64" viewBox="0 0 64 64" fill="none" xmlns="http://www.w3.org/2000/svg">
<mask id="path-1-inside-1_372_2310" fill="white">
<path fill-rule="evenodd" clip-rule="evenodd" d="M32 0C14.3269 0 0 14.3269 0 32C0 49.6731 14.3269 64 32 64C49.6731 64 64 49.6731 64 32C64 14.3269 49.6731 0 32 0ZM31.867 21.7568C28.6045 16.2619 21.2342 15.3632 16.8254 19.9228C13.0582 23.8188 13.0582 30.1356 16.8254 34.0317L24.2638 41.7245L30.8141 49.0764C31.7019 50.0729 33.2232 50.0729 34.111 49.0764L39.5537 42.9677L39.565 42.972L48.2095 34.0318C51.9767 30.1358 51.9767 23.819 48.2095 19.9229C43.8007 15.3634 36.4305 16.262 33.1679 21.757L32.5175 22.8524L31.867 21.7568Z"/>
</mask>
<path fill-rule="evenodd" clip-rule="evenodd" d="M32 0C14.3269 0 0 14.3269 0 32C0 49.6731 14.3269 64 32 64C49.6731 64 64 49.6731 64 32C64 14.3269 49.6731 0 32 0ZM31.867 21.7568C28.6045 16.2619 21.2342 15.3632 16.8254 19.9228C13.0582 23.8188 13.0582 30.1356 16.8254 34.0317L24.2638 41.7245L30.8141 49.0764C31.7019 50.0729 33.2232 50.0729 34.111 49.0764L39.5537 42.9677L39.565 42.972L48.2095 34.0318C51.9767 30.1358 51.9767 23.819 48.2095 19.9229C43.8007 15.3634 36.4305 16.262 33.1679 21.757L32.5175 22.8524L31.867 21.7568Z" fill="#F2F2F2"/>
<path d="M16.8254 19.9228L15.3876 18.5325L15.3876 18.5325L16.8254 19.9228ZM31.867 21.7568L30.1473 22.7779L30.1473 22.7779L31.867 21.7568ZM16.8254 34.0317L18.2632 32.6414L18.2632 32.6414L16.8254 34.0317ZM24.2638 41.7245L25.7571 40.394L25.73 40.3636L25.7016 40.3342L24.2638 41.7245ZM30.8141 49.0764L32.3074 47.746L32.3074 47.746L30.8141 49.0764ZM34.111 49.0764L35.6043 50.4069L35.6043 50.4069L34.111 49.0764ZM39.5537 42.9677L40.2711 41.1008L38.9803 40.6047L38.0604 41.6372L39.5537 42.9677ZM39.565 42.972L38.8476 44.8389L40.0829 45.3136L41.0028 44.3622L39.565 42.972ZM48.2095 34.0318L46.7717 32.6416L46.7717 32.6416L48.2095 34.0318ZM48.2095 19.9229L49.6473 18.5327L49.6473 18.5327L48.2095 19.9229ZM33.1679 21.757L31.4482 20.7359L31.4482 20.7359L33.1679 21.757ZM32.5175 22.8524L30.7978 23.8735L32.5175 26.7699L34.2372 23.8735L32.5175 22.8524ZM2 32C2 15.4315 15.4315 2 32 2V-2C13.2223 -2 -2 13.2223 -2 32H2ZM32 62C15.4315 62 2 48.5685 2 32H-2C-2 50.7777 13.2223 66 32 66V62ZM62 32C62 48.5685 48.5685 62 32 62V66C50.7777 66 66 50.7777 66 32H62ZM32 2C48.5685 2 62 15.4315 62 32H66C66 13.2223 50.7777 -2 32 -2V2ZM18.2632 21.313C21.7401 17.7172 27.547 18.3983 30.1473 22.7779L33.5867 20.7358C29.6619 14.1255 20.7282 13.0093 15.3876 18.5325L18.2632 21.313ZM18.2632 32.6414C15.2456 29.5206 15.2456 24.4338 18.2632 21.313L15.3876 18.5325C10.8708 23.2039 10.8708 30.7506 15.3876 35.4219L18.2632 32.6414ZM25.7016 40.3342L18.2632 32.6414L15.3876 35.4219L22.826 43.1147L25.7016 40.3342ZM32.3074 47.746L25.7571 40.394L22.7705 43.0549L29.3208 50.4069L32.3074 47.746ZM32.6177 47.746C32.5624 47.808 32.5082 47.8238 32.4626 47.8238C32.4169 47.8238 32.3627 47.808 32.3074 47.746L29.3208 50.4069C31.004 52.2961 33.9211 52.296 35.6043 50.4069L32.6177 47.746ZM38.0604 41.6372L32.6177 47.746L35.6043 50.4069L41.047 44.2981L38.0604 41.6372ZM40.2824 41.1051L40.2711 41.1008L38.8363 44.8346L38.8476 44.8389L40.2824 41.1051ZM46.7717 32.6416L38.1272 41.5818L41.0028 44.3622L49.6473 35.4221L46.7717 32.6416ZM46.7717 21.3132C49.7893 24.434 49.7893 29.5208 46.7717 32.6416L49.6473 35.4221C54.1641 30.7507 54.1641 23.204 49.6473 18.5327L46.7717 21.3132ZM34.8876 22.7781C37.4879 18.3985 43.2948 17.7173 46.7717 21.3132L49.6473 18.5327C44.3067 13.0094 35.373 14.1256 31.4482 20.7359L34.8876 22.7781ZM34.2372 23.8735L34.8876 22.7781L31.4482 20.7359L30.7978 21.8313L34.2372 23.8735ZM30.1473 22.7779L30.7978 23.8735L34.2372 21.8313L33.5867 20.7358L30.1473 22.7779Z" fill="#F2F2F2" mask="url(#path-1-inside-1_372_2310)"/>
</svg>
