<svg width="1840" height="1011" viewBox="0 0 1840 1011" fill="none" xmlns="http://www.w3.org/2000/svg">
<path fill-rule="evenodd" clip-rule="evenodd" d="M397 0C380.432 0 367 13.4316 367 30V74L366.865 93.0078C366.808 100.977 362.095 107.836 355.31 111H355H40C17.9087 111 0 128.908 0 151V971C0 993.092 17.9087 1011 40 1011H1800C1822.09 1011 1840 993.092 1840 971V151C1840 128.908 1822.09 111 1800 111H636H635.691C628.906 107.836 624.192 100.977 624.135 93.0078L624 74V30C624 13.4316 610.569 0 594 0H397Z" fill="#010AC9"/>
</svg>
