<svg width="1840" height="1011" viewBox="0 0 1840 1011" fill="none" xmlns="http://www.w3.org/2000/svg">
<path fill-rule="evenodd" clip-rule="evenodd" d="M206 0C189.431 0 176 13.4315 176 30V73L175.865 92.0076C175.801 100.962 169.857 108.516 161.701 111H40C17.9086 111 0 128.909 0 151V971C0 993.091 17.9086 1011 40 1011H1800C1822.09 1011 1840 993.091 1840 971V151C1840 128.909 1822.09 111 1800 111H381.299C373.143 108.516 367.199 100.962 367.135 92.0076L367 73V30C367 13.4315 353.568 0 337 0H206Z" fill="#010AC9"/>
</svg>
