<svg width="1840" height="1011" viewBox="0 0 1840 1011" fill="none" xmlns="http://www.w3.org/2000/svg">
<path fill-rule="evenodd" clip-rule="evenodd" d="M1158 0C1141.43 0 1128 13.4315 1128 30V73L1127.86 92.0076C1127.8 100.962 1121.86 108.516 1113.7 111H40C17.9086 111 0 128.909 0 151V971C0 993.091 17.9086 1011 40 1011H1800C1822.09 1011 1840 993.091 1840 971V151C1840 128.909 1822.09 111 1800 111H1329.3C1321.14 108.516 1315.2 100.962 1315.14 92.0076L1315 73V30C1315 13.4315 1301.57 0 1285 0H1158Z" fill="#010AC9"/>
</svg>
