<svg width="1840" height="1011" viewBox="0 0 1840 1011" fill="none" xmlns="http://www.w3.org/2000/svg">
<path fill-rule="evenodd" clip-rule="evenodd" d="M654 0C637.432 0 624 13.4316 624 30V74L623.865 93.0078C623.808 100.977 619.095 107.836 612.31 111H612H40C17.9087 111 0 128.908 0 151V971C0 993.092 17.9087 1011 40 1011H1800C1822.09 1011 1840 993.092 1840 971V151C1840 128.908 1822.09 111 1800 111H896H895.69C888.905 107.836 884.192 100.977 884.135 93.0078L884 74V30C884 13.4316 870.569 0 854 0H654Z" fill="#010AC9"/>
</svg>
