<svg width="1840" height="1011" viewBox="0 0 1840 1011" fill="none" xmlns="http://www.w3.org/2000/svg">
<path fill-rule="evenodd" clip-rule="evenodd" d="M914 0C897.431 0 884 13.4316 884 30V74L883.865 93.0078C883.808 100.977 879.094 107.836 872.31 111H872H40C17.9087 111 0 128.908 0 151V971C0 993.092 17.9087 1011 40 1011H1800C1822.09 1011 1840 993.092 1840 971V151C1840 128.908 1822.09 111 1800 111H1140H1139.69C1132.91 107.836 1128.19 100.977 1128.14 93.0078L1128 74V30C1128 13.4316 1114.57 0 1098 0H914Z" fill="#010AC9"/>
</svg>
