<svg width="558" height="750" viewBox="0 0 558 750" fill="none" xmlns="http://www.w3.org/2000/svg">
<path d="M243 646.5C243 614.744 217.256 589 185.5 589C153.744 589 128 614.744 128 646.5C128 678.256 153.744 704 185.5 704C217.256 704 243 678.256 243 646.5Z" fill="#F2F2F2"/>
<path d="M430 172.5C430 140.744 404.256 115 372.5 115C340.744 115 315 140.744 315 172.5C315 204.256 340.744 230 372.5 230C404.256 230 430 204.256 430 172.5Z" fill="#FF5903"/>
<path d="M422.607 606.96L430 599.488L422.607 592.015L427.556 582.698L418.631 577.862L420.73 567.84L410.922 565.739L410.228 555.63L400.19 556.336L396.732 546.774L387.089 550.328L380.985 542L372.5 548.364L364.015 542L357.899 550.328L348.268 546.774L344.822 556.323L334.784 555.617L334.078 565.739L324.27 567.84L326.369 577.862L317.436 582.711L322.393 592.027L315 599.5L322.393 606.973L317.464 616.289L326.397 621.138L324.299 631.16L334.106 633.261L334.801 643.37L344.838 642.664L348.284 652.213L357.928 648.659L364.015 657L372.5 650.619L380.989 657L387.101 648.668L396.732 652.209L400.182 642.66L410.216 643.366L410.91 633.257L420.718 631.156L418.619 621.134L427.552 616.285L422.607 606.96ZM421.786 592.251C421.786 592.177 421.765 592.102 421.753 592.027L421.917 592.118L421.786 592.251ZM323.214 592.235L323.083 592.102L323.247 592.01C323.214 592.102 323.214 592.177 323.214 592.235ZM323.214 606.72C323.214 606.794 323.235 606.869 323.247 606.94L323.083 606.853L323.214 606.72ZM372.5 649.855H372.701L372.5 650.129L372.299 649.855H372.5ZM372.299 549.137L372.5 548.863L372.701 549.137H372.291H372.299ZM421.806 606.736L421.938 606.869L421.773 606.956C421.786 606.886 421.786 606.811 421.806 606.736Z" fill="#FF5903"/>
<path d="M235.607 267.96L243 260.488L235.607 253.015L240.556 243.698L231.631 238.862L233.73 228.84L223.922 226.739L223.228 216.63L213.19 217.336L209.732 207.774L200.089 211.328L193.985 203L185.5 209.364L177.015 203L170.899 211.328L161.268 207.774L157.822 217.323L147.784 216.617L147.078 226.739L137.27 228.84L139.369 238.862L130.436 243.711L135.393 253.027L128 260.5L135.393 267.973L130.464 277.289L139.397 282.138L137.299 292.16L147.106 294.261L147.801 304.37L157.838 303.664L161.284 313.213L170.928 309.659L177.015 318L185.5 311.619L193.989 318L200.101 309.668L209.732 313.209L213.182 303.66L223.216 304.366L223.91 294.257L233.718 292.156L231.619 282.134L240.552 277.285L235.607 267.96ZM234.786 253.251C234.786 253.177 234.765 253.102 234.753 253.027L234.917 253.118L234.786 253.251ZM136.214 253.235L136.083 253.102L136.247 253.01C136.214 253.102 136.214 253.177 136.214 253.235ZM136.214 267.72C136.214 267.794 136.235 267.869 136.247 267.94L136.083 267.853L136.214 267.72ZM185.5 310.855H185.701L185.5 311.129L185.299 310.855H185.5ZM185.299 210.137L185.5 209.863L185.701 210.137H185.291H185.299ZM234.806 267.736L234.938 267.869L234.773 267.956C234.786 267.886 234.786 267.811 234.806 267.736Z" fill="#F2F2F2"/>
<path d="M270.687 65.1149C272.457 64.7934 274.06 63.854 275.214 62.4608C276.368 61.0676 277 59.3093 277 57.4933C277 55.6772 276.368 53.919 275.214 52.5258C274.06 51.1326 272.457 50.1932 270.687 49.8717C272.213 49.077 273.431 47.7886 274.146 46.2125C274.861 44.6364 275.032 42.8638 274.631 41.1781C274.231 39.4924 273.282 37.9911 271.936 36.9142C270.59 35.8373 268.925 35.2471 267.208 35.238H267.048C268.153 33.9863 268.825 32.4061 268.963 30.7354C269.102 29.0647 268.698 27.3938 267.814 25.9744C266.931 24.5551 265.614 23.464 264.062 22.8656C262.511 22.2671 260.809 22.1937 259.212 22.6563C259.875 21.1376 260.038 19.4441 259.675 17.8253C259.312 16.2066 258.444 14.7482 257.198 13.6653C255.953 12.5823 254.395 11.932 252.755 11.8102C251.116 11.6884 249.481 12.1016 248.091 12.9889C248.149 12.6227 248.179 12.2527 248.182 11.882C248.182 10.2755 247.688 8.70858 246.767 7.39816C245.846 6.08774 244.545 5.09862 243.043 4.5677C241.541 4.03678 239.912 3.99032 238.383 4.43474C236.853 4.87916 235.499 5.79249 234.506 7.04832C234.345 5.25288 233.568 3.57041 232.31 2.29069C231.052 1.01097 229.392 0.214105 227.614 0.0373444C225.837 -0.139416 224.054 0.314992 222.573 1.3223C221.092 2.32962 220.005 3.82678 219.5 5.55592C218.995 3.82678 217.908 2.32962 216.427 1.3223C214.946 0.314992 213.163 -0.139416 211.386 0.0373444C209.608 0.214105 207.948 1.01097 206.69 2.29069C205.432 3.57041 204.655 5.25288 204.494 7.04832C203.501 5.79221 202.146 4.87876 200.616 4.43445C199.087 3.99014 197.458 4.03694 195.955 4.56839C194.453 5.09983 193.152 6.08962 192.231 7.40069C191.311 8.71177 190.817 10.2793 190.818 11.8862C190.821 12.2569 190.851 12.6268 190.909 12.993C189.519 12.1099 187.886 11.6999 186.249 11.8231C184.611 11.9463 183.056 12.5963 181.812 13.6775C180.568 14.7588 179.699 16.2143 179.335 17.8304C178.971 19.4465 179.129 21.1379 179.788 22.6563C178.192 22.1971 176.492 22.2728 174.942 22.8722C173.393 23.4715 172.078 24.5621 171.195 25.9801C170.311 27.3982 169.908 29.0672 170.044 30.7365C170.181 32.4058 170.85 33.9854 171.952 35.238H171.792C170.067 35.2381 168.393 35.8245 167.039 36.9026C165.685 37.9807 164.73 39.4877 164.328 41.1806C163.926 42.8736 164.101 44.6538 164.824 46.2343C165.547 47.8148 166.776 49.1034 168.313 49.8924C166.543 50.2139 164.94 51.1533 163.786 52.5465C162.632 53.9397 162 55.698 162 57.514C162 59.3301 162.632 61.0884 163.786 62.4815C164.94 63.8747 166.543 64.8141 168.313 65.1356C166.776 65.9246 165.547 67.2133 164.824 68.7938C164.101 70.3742 163.926 72.1545 164.328 73.8474C164.73 75.5404 165.685 77.0474 167.039 78.1255C168.393 79.2036 170.067 79.79 171.792 79.7901H171.952C170.866 81.0443 170.21 82.619 170.082 84.2799C169.953 85.9407 170.36 87.599 171.24 89.0081C172.12 90.4171 173.428 91.5016 174.968 92.1002C176.508 92.6988 178.199 92.7795 179.788 92.3303C179.131 93.8483 178.973 95.5388 179.339 97.1537C179.704 98.7687 180.572 100.223 181.817 101.303C183.061 102.383 184.616 103.031 186.252 103.153C187.889 103.275 189.521 102.865 190.909 101.981C190.851 102.347 190.821 102.717 190.818 103.088C190.817 104.695 191.311 106.262 192.231 107.573C193.152 108.885 194.453 109.874 195.955 110.406C197.458 110.937 199.087 110.984 200.616 110.54C202.146 110.095 203.501 109.182 204.494 107.926C204.651 109.723 205.424 111.408 206.68 112.691C207.936 113.974 209.597 114.775 211.375 114.955C213.153 115.134 214.938 114.682 216.421 113.676C217.904 112.67 218.993 111.173 219.5 109.443C220.005 111.172 221.091 112.669 222.572 113.677C224.053 114.684 225.836 115.139 227.613 114.963C229.39 114.787 231.051 113.99 232.309 112.711C233.567 111.432 234.344 109.75 234.506 107.955C235.499 109.211 236.854 110.124 238.384 110.569C239.914 111.013 241.542 110.966 243.045 110.435C244.547 109.903 245.848 108.914 246.769 107.602C247.689 106.291 248.183 104.724 248.182 103.117C248.179 102.746 248.149 102.376 248.091 102.01C249.481 102.894 251.115 103.305 252.753 103.182C254.391 103.059 255.947 102.408 257.192 101.326C258.437 100.244 259.305 98.7875 259.668 97.1705C260.032 95.5534 259.872 93.8613 259.212 92.3428C260.806 92.7979 262.503 92.72 264.049 92.1206C265.595 91.5212 266.907 90.4326 267.789 89.0176C268.671 87.6027 269.076 85.9375 268.942 84.2711C268.808 82.6047 268.144 81.0268 267.048 79.7735H267.208C268.933 79.7734 270.607 79.187 271.961 78.1089C273.315 77.0308 274.27 75.5238 274.672 73.8308C275.074 72.1379 274.899 70.3577 274.176 68.7772C273.453 67.1967 272.224 65.9081 270.687 65.119V65.1149Z" fill="#FFD916"/>
<path fill-rule="evenodd" clip-rule="evenodd" d="M0.701338 511.395C-3.37976 492.69 10.8668 475 30.0118 475H527.509C546.654 475 560.901 492.69 556.82 511.395L509.911 726.395C506.904 740.175 494.705 750 480.6 750H76.9209C62.8166 750 50.617 740.175 47.6104 726.395L0.701338 511.395ZM93.7606 538C93.7606 529.716 100.476 523 108.761 523C117.045 523 123.761 529.716 123.761 538V588C123.761 596.284 117.045 603 108.761 603C100.476 603 93.7606 596.284 93.7606 588V538ZM108.761 623C100.476 623 93.7606 629.716 93.7606 638V688C93.7606 696.284 100.476 703 108.761 703C117.045 703 123.761 696.284 123.761 688V638C123.761 629.716 117.045 623 108.761 623ZM433.761 538C433.761 529.716 440.476 523 448.761 523C457.045 523 463.761 529.716 463.761 538V588C463.761 596.284 457.045 603 448.761 603C440.476 603 433.761 596.284 433.761 588V538ZM448.761 623C440.476 623 433.761 629.716 433.761 638V688C433.761 696.284 440.476 703 448.761 703C457.045 703 463.761 696.284 463.761 688V638C463.761 629.716 457.045 623 448.761 623ZM365.761 538C365.761 529.716 372.476 523 380.761 523C389.045 523 395.761 529.716 395.761 538V588C395.761 596.284 389.045 603 380.761 603C372.476 603 365.761 596.284 365.761 588V538ZM380.761 623C372.476 623 365.761 629.716 365.761 638V688C365.761 696.284 372.476 703 380.761 703C389.045 703 395.761 696.284 395.761 688V638C395.761 629.716 389.045 623 380.761 623ZM297.761 538C297.761 529.716 304.476 523 312.761 523C321.045 523 327.761 529.716 327.761 538V588C327.761 596.284 321.045 603 312.761 603C304.476 603 297.761 596.284 297.761 588V538ZM312.761 623C304.476 623 297.761 629.716 297.761 638V688C297.761 696.284 304.476 703 312.761 703C321.045 703 327.761 696.284 327.761 688V638C327.761 629.716 321.045 623 312.761 623ZM229.761 538C229.761 529.716 236.476 523 244.761 523C253.045 523 259.761 529.716 259.761 538V588C259.761 596.284 253.045 603 244.761 603C236.476 603 229.761 596.284 229.761 588V538ZM244.761 623C236.476 623 229.761 629.716 229.761 638V688C229.761 696.284 236.476 703 244.761 703C253.045 703 259.761 696.284 259.761 688V638C259.761 629.716 253.045 623 244.761 623ZM161.761 538C161.761 529.716 168.476 523 176.761 523C185.045 523 191.761 529.716 191.761 538V588C191.761 596.284 185.045 603 176.761 603C168.476 603 161.761 596.284 161.761 588V538ZM176.761 623C168.476 623 161.761 629.716 161.761 638V688C161.761 696.284 168.476 703 176.761 703C185.045 703 191.761 696.284 191.761 688V638C191.761 629.716 185.045 623 176.761 623Z" fill="#FFD916"/>
<rect x="174.413" y="342" width="50" height="180" rx="25" transform="rotate(30 174.413 342)" fill="#FF5903"/>
<rect width="50" height="180" rx="25" transform="matrix(-0.866025 0.5 0.5 0.866025 382.714 342)" fill="#FF5903"/>
</svg>
