<svg width="93" height="93" viewBox="0 0 93 93" fill="none" xmlns="http://www.w3.org/2000/svg">
<path d="M46.3068 31.6154L47.1666 31.1048L47.1666 31.1048L46.3068 31.6154ZM24.4494 28.9503L25.1683 29.6454L25.1683 29.6454L24.4494 28.9503ZM47.252 33.2074L46.3921 33.7179C46.5723 34.0214 46.8991 34.2074 47.252 34.2074C47.6049 34.2074 47.9317 34.0214 48.1119 33.7179L47.252 33.2074ZM48.1971 31.6156L49.0569 32.1262L49.0569 32.1262L48.1971 31.6156ZM70.0544 28.9505L69.3355 29.6456L69.3355 29.6456L70.0544 28.9505ZM70.0544 49.4525L70.7733 50.1476L70.7733 50.1476L70.0544 49.4525ZM57.4929 62.4437L57.1343 63.3772C57.5087 63.521 57.9329 63.4272 58.2117 63.1388L57.4929 62.4437ZM57.4764 62.4374L57.835 61.5039C57.4467 61.3547 57.0065 61.4615 56.7298 61.7722L57.4764 62.4374ZM48.8206 72.1526L49.5673 72.8178L49.5673 72.8178L48.8206 72.1526ZM45.5237 72.1526L44.7771 72.8178L44.7771 72.8178L45.5237 72.1526ZM35.2583 60.6308L36.0049 59.9656C35.9959 59.9554 35.9866 59.9454 35.9772 59.9357L35.2583 60.6308ZM24.4494 49.4523L23.7305 50.1474L23.7305 50.1474L24.4494 49.4523ZM47.1666 31.1048C42.0946 22.5623 30.603 21.1477 23.7305 28.2552L25.1683 29.6454C31.1089 23.5016 41.0371 24.6987 45.4469 32.1259L47.1666 31.1048ZM48.1119 32.6969L47.1666 31.1048L45.4469 32.1259L46.3921 33.7179L48.1119 32.6969ZM47.3372 31.1051L46.3921 32.6969L48.1119 33.7179L49.0569 32.1262L47.3372 31.1051ZM70.7733 28.2554C63.9009 21.1479 52.4093 22.5626 47.3372 31.1051L49.0569 32.1262C53.4668 24.699 63.3949 23.5019 69.3355 29.6456L70.7733 28.2554ZM70.7733 50.1476C76.6224 44.0985 76.6224 34.3045 70.7733 28.2554L69.3355 29.6456C74.435 34.9195 74.435 43.4835 69.3355 48.7574L70.7733 50.1476ZM58.2117 63.1388L70.7733 50.1476L69.3355 48.7574L56.774 61.7486L58.2117 63.1388ZM57.1178 63.3709L57.1343 63.3772L57.8515 61.5102L57.835 61.5039L57.1178 63.3709ZM56.7298 61.7722L48.074 71.4873L49.5673 72.8178L58.2231 63.1026L56.7298 61.7722ZM48.074 71.4873C47.5839 72.0374 46.7604 72.0374 46.2703 71.4873L44.7771 72.8178C46.0625 74.2606 48.2818 74.2606 49.5673 72.8178L48.074 71.4873ZM46.2703 71.4873L36.0049 59.9656L34.5116 61.296L44.7771 72.8178L46.2703 71.4873ZM23.7305 50.1474L34.5394 61.3259L35.9772 59.9357L25.1683 48.7571L23.7305 50.1474ZM23.7305 28.2552C17.8815 34.3043 17.8815 44.0983 23.7305 50.1474L25.1683 48.7571C20.0689 43.4833 20.0689 34.9192 25.1683 29.6454L23.7305 28.2552Z" fill="#F2F2F2"/>
<rect x="1" y="1" width="91" height="91" rx="45.5" stroke="#F2F2F2" stroke-width="2"/>
</svg>
