<svg width="120" height="99" viewBox="0 0 120 99" fill="none" xmlns="http://www.w3.org/2000/svg">
<path d="M26.4792 99L36.8036 66.3777L17.6417 72.5089L17.6417 53.9652L0 50.3164L12.847 35.3214L4.67771 16.3112L24.1403 19.4101L36.8036 0L47.1279 14.745L58.0036 0L70.4497 15.1449L85.5854 2.71575L93.4206 16.6944L108.606 15.5281L107.053 29.3401L120 39.2035L106.268 47.3674L108.64 64.7949L89.5281 60.6296L82.2442 71.5426L68.5118 61.4127L59.9916 72.5089L52.9417 64.0618L26.4792 99Z" fill="#010AC9"/>
<path d="M32.276 32.4722H41.7654V35.4212H35.3333V46.6507H32.276V32.4722Z" fill="#F2F2F2"/>
<path d="M49.9362 46.9506C48.4616 46.9502 47.0202 46.5143 45.7936 45.698C44.567 44.8817 43.6102 43.7215 43.0438 42.3637C42.4775 41.0059 42.3268 39.5113 42.6109 38.0682C42.895 36.6251 43.6012 35.2983 44.6403 34.2548C45.3358 33.5613 46.1614 33.0111 47.0701 32.6357C47.9788 32.2603 48.9527 32.0671 49.9362 32.0671C50.9198 32.0671 51.8937 32.2603 52.8023 32.6357C53.711 33.0111 54.5367 33.5613 55.2321 34.2548C55.9276 34.9484 56.4793 35.7718 56.8557 36.6781C57.232 37.5843 57.4258 38.5556 57.4258 39.5364C57.4258 40.5173 57.232 41.4886 56.8557 42.3948C56.4793 43.301 55.9276 44.1244 55.2321 44.818C54.5419 45.5149 53.716 46.0636 52.8053 46.4304C51.8945 46.7971 50.9181 46.9742 49.9362 46.9506V46.9506ZM45.5258 39.5364C45.5258 40.703 45.9904 41.8218 46.8176 42.6467C47.6447 43.4716 48.7665 43.935 49.9362 43.935C51.106 43.935 52.2278 43.4716 53.0549 42.6467C53.882 41.8218 54.3467 40.703 54.3467 39.5364C54.3467 38.3699 53.882 37.2511 53.0549 36.4262C52.2278 35.6013 51.106 35.1379 49.9362 35.1379C48.7665 35.1379 47.6447 35.6013 46.8176 36.4262C45.9904 37.2511 45.5258 38.3699 45.5258 39.5364V39.5364Z" fill="#F2F2F2"/>
<path d="M68.4937 38.9367V32.4722H71.551V46.6507H68.4937V41.819C67.349 42.2375 66.1378 42.4464 64.9186 42.4355C63.4089 42.5256 61.918 42.0636 60.7254 41.1359C60.213 40.6505 59.8142 40.0585 59.5572 39.4019C59.3002 38.7454 59.1914 38.0404 59.2385 37.3372L59.2385 32.4722H62.279V37.054C62.279 38.7201 63.2981 39.5864 65.3196 39.5864C66.412 39.5983 67.4943 39.3768 68.4937 38.9367V38.9367Z" fill="#F2F2F2"/>
<path d="M78.1365 41.4192L85.3701 32.4722H87.7256V46.6507H84.7186V37.6204L77.4849 46.6507H75.1795V32.4722H78.1866L78.1365 41.4192Z" fill="#F2F2F2"/>
</svg>
