{
  "asset": {
    "version": "2.0",
    "generator": "Sketchup glTF Exporter v1.2.6 by Centaur"
  },
  "scene": 0,
  "scenes": [
    {
      "nodes": [
        0
      ]
    }
  ],
  "samplers": [
    {
    }
  ],
  "nodes": [
    {
      "name": "root",
      "children": [
        1,
        4,
        7,
        8,
        10,
        11
      ],
      "mesh": 9
    },
    {
      "children": [
        2,
        3
      ]
    },
    {
      "mesh": 0
    },
    {
      "mesh": 1
    },
    {
      "children": [
        5,
        6
      ]
    },
    {
      "mesh": 2
    },
    {
      "mesh": 3
    },
    {
      "mesh": 4
    },
    {
      "children": [
        9
      ],
      "mesh": 6
    },
    {
      "mesh": 5
    },
    {
      "mesh": 7
    },
    {
      "mesh": 8
    }
  ],
  "materials": [
    {
      "pbrMetallicRoughness": {
        "baseColorFactor": [
          0.924,
          0.8434,
          0.7667,
          1.0
        ],
        "metallicFactor": 0.1,
        "roughnessFactor": 0.9
      },
      "name": "color_16182498"
    },
    {
      "pbrMetallicRoughness": {
        "baseColorFactor": [
          0.8671,
          0.7519,
          0.6524,
          1.0
        ],
        "metallicFactor": 0.1,
        "roughnessFactor": 0.9
      },
      "name": "Материал18",
      "doubleSided": true
    },
    {
      "pbrMetallicRoughness": {
        "baseColorFactor": [
          0.2195,
          0.2195,
          0.2195,
          0.5
        ],
        "metallicFactor": 0.1,
        "roughnessFactor": 0.9
      },
      "name": "Прозрачное стекло, серое",
      "doubleSided": true,
      "alphaMode": "BLEND"
    },
    {
      "pbrMetallicRoughness": {
        "baseColorFactor": [
          0.0066,
          0.0026,
          0.005,
          1.0
        ],
        "metallicFactor": 0.1,
        "roughnessFactor": 0.9
      },
      "name": "Материал12",
      "doubleSided": true
    },
    {
      "pbrMetallicRoughness": {
        "baseColorFactor": [
          0.2176,
          0.2176,
          0.2176,
          1.0
        ],
        "metallicFactor": 0.1,
        "roughnessFactor": 0.9
      },
      "name": "default material",
      "doubleSided": true
    },
    {
      "pbrMetallicRoughness": {
        "baseColorTexture": {
          "index": 0
        },
        "metallicFactor": 0.1,
        "roughnessFactor": 0.9
      },
      "name": "Прозрачное стекло, безопасное",
      "doubleSided": true,
      "alphaMode": "BLEND"
    },
    {
      "pbrMetallicRoughness": {
        "baseColorFactor": [
          0.3537,
          0.029,
          0.0179,
          1.0
        ],
        "metallicFactor": 0.1,
        "roughnessFactor": 0.9
      },
      "name": "Материал11"
    },
    {
      "pbrMetallicRoughness": {
        "baseColorTexture": {
          "index": 1
        },
        "metallicFactor": 0.1,
        "roughnessFactor": 0.9
      },
      "name": "ГАРДЕРОБ",
      "doubleSided": true
    },
    {
      "pbrMetallicRoughness": {
        "baseColorTexture": {
          "index": 2
        },
        "metallicFactor": 0.1,
        "roughnessFactor": 0.9
      },
      "name": "СПУСК В АД",
      "doubleSided": true
    },
    {
      "pbrMetallicRoughness": {
        "baseColorTexture": {
          "index": 3
        },
        "metallicFactor": 0.1,
        "roughnessFactor": 0.9
      },
      "name": "АДМИНИСТРАЦИЯ",
      "doubleSided": true
    }
  ],
  "images": [
    {
      "bufferView": 0,
      "mimeType": "image/jpeg"
    },
    {
      "bufferView": 1,
      "mimeType": "image/png"
    },
    {
      "bufferView": 2,
      "mimeType": "image/png"
    },
    {
      "bufferView": 3,
      "mimeType": "image/png"
    }
  ],
  "textures": [
    {
      "source": 0,
      "sampler": 0
    },
    {
      "source": 1,
      "sampler": 0
    },
    {
      "source": 2,
      "sampler": 0
    },
    {
      "source": 3,
      "sampler": 0
    }
  ],
  "meshes": [
    {
      "primitives": [
        {
          "attributes": {
            "POSITION": 0,
            "NORMAL": 1
          },
          "indices": 5,
          "mode": 4,
          "material": 0
        }
      ]
    },
    {
      "primitives": [
        {
          "attributes": {
            "POSITION": 0,
            "NORMAL": 1
          },
          "indices": 6,
          "mode": 4,
          "material": 0
        }
      ]
    },
    {
      "primitives": [
        {
          "attributes": {
            "POSITION": 0,
            "NORMAL": 1
          },
          "indices": 7,
          "mode": 4,
          "material": 0
        }
      ]
    },
    {
      "primitives": [
        {
          "attributes": {
            "POSITION": 0,
            "NORMAL": 1
          },
          "indices": 8,
          "mode": 4,
          "material": 0
        }
      ]
    },
    {
      "primitives": [
        {
          "attributes": {
            "POSITION": 0,
            "NORMAL": 1
          },
          "indices": 9,
          "mode": 4,
          "material": 1
        }
      ]
    },
    {
      "primitives": [
        {
          "attributes": {
            "POSITION": 0,
            "NORMAL": 1
          },
          "indices": 10,
          "mode": 4,
          "material": 1
        }
      ]
    },
    {
      "primitives": [
        {
          "attributes": {
            "POSITION": 0,
            "NORMAL": 1
          },
          "indices": 11,
          "mode": 4,
          "material": 2
        },
        {
          "attributes": {
            "POSITION": 0,
            "NORMAL": 1
          },
          "indices": 12,
          "mode": 4,
          "material": 3
        },
        {
          "attributes": {
            "POSITION": 0,
            "NORMAL": 1
          },
          "indices": 13,
          "mode": 4,
          "material": 4
        },
        {
          "attributes": {
            "POSITION": 0,
            "NORMAL": 1
          },
          "indices": 14,
          "mode": 4,
          "material": 1
        },
        {
          "attributes": {
            "POSITION": 2,
            "NORMAL": 3,
            "TEXCOORD_0": 4
          },
          "indices": 15,
          "mode": 4,
          "material": 5
        },
        {
          "attributes": {
            "POSITION": 0,
            "NORMAL": 1
          },
          "indices": 16,
          "mode": 4,
          "material": 0
        }
      ]
    },
    {
      "primitives": [
        {
          "attributes": {
            "POSITION": 0,
            "NORMAL": 1
          },
          "indices": 17,
          "mode": 4,
          "material": 1
        },
        {
          "attributes": {
            "POSITION": 0,
            "NORMAL": 1
          },
          "indices": 18,
          "mode": 4,
          "material": 3
        },
        {
          "attributes": {
            "POSITION": 0,
            "NORMAL": 1
          },
          "indices": 19,
          "mode": 4,
          "material": 6
        },
        {
          "attributes": {
            "POSITION": 0,
            "NORMAL": 1
          },
          "indices": 20,
          "mode": 4,
          "material": 4
        }
      ]
    },
    {
      "primitives": [
        {
          "attributes": {
            "POSITION": 0,
            "NORMAL": 1
          },
          "indices": 21,
          "mode": 4,
          "material": 6
        }
      ]
    },
    {
      "primitives": [
        {
          "attributes": {
            "POSITION": 0,
            "NORMAL": 1
          },
          "indices": 22,
          "mode": 4,
          "material": 0
        },
        {
          "attributes": {
            "POSITION": 2,
            "NORMAL": 3,
            "TEXCOORD_0": 4
          },
          "indices": 23,
          "mode": 4,
          "material": 7
        },
        {
          "attributes": {
            "POSITION": 2,
            "NORMAL": 3,
            "TEXCOORD_0": 4
          },
          "indices": 24,
          "mode": 4,
          "material": 8
        },
        {
          "attributes": {
            "POSITION": 2,
            "NORMAL": 3,
            "TEXCOORD_0": 4
          },
          "indices": 25,
          "mode": 4,
          "material": 9
        }
      ]
    }
  ],
  "accessors": [
    {
      "bufferView": 4,
      "componentType": 5126,
      "count": 7393,
      "type": "VEC3",
      "min": [
        -57.49707427378895,
        235.09968823974572,
        -69.4088908379847
      ],
      "max": [
        56.60656859045697,
        433.2249819566648,
        51.59393296703102
      ]
    },
    {
      "bufferView": 5,
      "componentType": 5126,
      "count": 7393,
      "type": "VEC3",
      "min": [
        -1.0,
        -1.0,
        -1.0
      ],
      "max": [
        1.0,
        1.0,
        1.0
      ]
    },
    {
      "bufferView": 6,
      "componentType": 5126,
      "count": 83,
      "type": "VEC3",
      "min": [
        -47.42841619050348,
        241.8596882397457,
        -13.616662750568135
      ],
      "max": [
        57.6624908835997,
        319.2436554205529,
        42.76686544340137
      ]
    },
    {
      "bufferView": 7,
      "componentType": 5126,
      "count": 83,
      "type": "VEC3",
      "min": [
        -1.0,
        -1.0,
        -1.0
      ],
      "max": [
        1.0,
        1.0,
        1.0
      ]
    },
    {
      "bufferView": 8,
      "componentType": 5126,
      "count": 83,
      "type": "VEC2",
      "min": [
        -23.197305867416844,
        -1824.018290161527
      ],
      "max": [
        15.16051362464134,
        1.0000000000000142
      ]
    },
    {
      "bufferView": 9,
      "componentType": 5123,
      "count": 438,
      "type": "SCALAR"
    },
    {
      "bufferView": 9,
      "componentType": 5123,
      "count": 42,
      "type": "SCALAR",
      "byteOffset": 876
    },
    {
      "bufferView": 9,
      "componentType": 5123,
      "count": 453,
      "type": "SCALAR",
      "byteOffset": 960
    },
    {
      "bufferView": 9,
      "componentType": 5123,
      "count": 42,
      "type": "SCALAR",
      "byteOffset": 1866
    },
    {
      "bufferView": 9,
      "componentType": 5123,
      "count": 1152,
      "type": "SCALAR",
      "byteOffset": 1950
    },
    {
      "bufferView": 9,
      "componentType": 5123,
      "count": 1182,
      "type": "SCALAR",
      "byteOffset": 4254
    },
    {
      "bufferView": 9,
      "componentType": 5123,
      "count": 270,
      "type": "SCALAR",
      "byteOffset": 6618
    },
    {
      "bufferView": 9,
      "componentType": 5123,
      "count": 591,
      "type": "SCALAR",
      "byteOffset": 7158
    },
    {
      "bufferView": 9,
      "componentType": 5123,
      "count": 516,
      "type": "SCALAR",
      "byteOffset": 8340
    },
    {
      "bufferView": 9,
      "componentType": 5123,
      "count": 1386,
      "type": "SCALAR",
      "byteOffset": 9372
    },
    {
      "bufferView": 10,
      "componentType": 5121,
      "count": 21,
      "type": "SCALAR"
    },
    {
      "bufferView": 9,
      "componentType": 5123,
      "count": 6,
      "type": "SCALAR",
      "byteOffset": 12144
    },
    {
      "bufferView": 9,
      "componentType": 5123,
      "count": 294,
      "type": "SCALAR",
      "byteOffset": 12156
    },
    {
      "bufferView": 9,
      "componentType": 5123,
      "count": 432,
      "type": "SCALAR",
      "byteOffset": 12744
    },
    {
      "bufferView": 9,
      "componentType": 5123,
      "count": 402,
      "type": "SCALAR",
      "byteOffset": 13608
    },
    {
      "bufferView": 9,
      "componentType": 5123,
      "count": 756,
      "type": "SCALAR",
      "byteOffset": 14412
    },
    {
      "bufferView": 9,
      "componentType": 5123,
      "count": 1152,
      "type": "SCALAR",
      "byteOffset": 15924
    },
    {
      "bufferView": 9,
      "componentType": 5123,
      "count": 9090,
      "type": "SCALAR",
      "byteOffset": 18228
    },
    {
      "bufferView": 10,
      "componentType": 5121,
      "count": 36,
      "type": "SCALAR",
      "byteOffset": 21
    },
    {
      "bufferView": 10,
      "componentType": 5121,
      "count": 36,
      "type": "SCALAR",
      "byteOffset": 57
    },
    {
      "bufferView": 10,
      "componentType": 5121,
      "count": 36,
      "type": "SCALAR",
      "byteOffset": 93
    }
  ],
  "bufferViews": [
    {
      "buffer": 0,
      "byteLength": 6047
    },
    {
      "buffer": 0,
      "byteOffset": 6047,
      "byteLength": 17680
    },
    {
      "buffer": 0,
      "byteOffset": 23727,
      "byteLength": 27558
    },
    {
      "buffer": 0,
      "byteOffset": 51285,
      "byteLength": 42191
    },
    {
      "buffer": 0,
      "byteOffset": 93480,
      "byteLength": 88716,
      "target": 34962,
      "byteStride": 12
    },
    {
      "buffer": 0,
      "byteOffset": 182196,
      "byteLength": 88716,
      "target": 34962,
      "byteStride": 12
    },
    {
      "buffer": 0,
      "byteOffset": 270912,
      "byteLength": 996,
      "target": 34962,
      "byteStride": 12
    },
    {
      "buffer": 0,
      "byteOffset": 271908,
      "byteLength": 996,
      "target": 34962,
      "byteStride": 12
    },
    {
      "buffer": 0,
      "byteOffset": 272904,
      "byteLength": 664,
      "target": 34962,
      "byteStride": 8
    },
    {
      "buffer": 0,
      "byteOffset": 273568,
      "byteLength": 36408,
      "target": 34963
    },
    {
      "buffer": 0,
      "byteOffset": 309976,
      "byteLength": 129,
      "target": 34963
    }
  ],
  "buffers": [
    {
      "uri": "data:application/octet-stream;base64,",
      "byteLength": 310105
    }
  ]
}
